<svg width="347" height="62" viewBox="0 0 347 62" fill="none" xmlns="http://www.w3.org/2000/svg">
<path d="M34.6068 25.2953L24.6595 25.9287C24.5202 20.1469 22.2918 17.256 17.9743 17.256C13.0141 17.256 10.5339 21.706 10.5339 30.6061C10.5339 35.749 11.2089 39.2327 12.5587 41.0571C13.2019 41.9454 14.0512 42.6603 15.032 43.1389C16.0128 43.6176 17.095 43.8452 18.1832 43.8018C22.115 43.8018 24.5255 41.2222 25.4148 36.063L34.6148 36.6314C34.0363 41.5362 32.2284 45.2608 29.1912 47.8052C26.0725 50.3899 22.1345 51.7483 18.1029 51.63C12.7462 51.63 8.38856 49.7595 5.02993 46.0187C1.6713 42.2779 -0.00534388 37.1105 1.27946e-05 30.5167C1.27946e-05 24.3398 1.62308 19.2807 4.86923 15.3396C8.11537 11.3984 12.5453 9.42787 18.1591 9.42787C27.8976 9.42787 33.3801 14.717 34.6068 25.2953Z" fill="#015941"/>
<path d="M49.6403 20.0738C54.2042 20.0738 57.7664 21.5842 60.3269 24.605C62.9504 27.7863 64.3182 31.8351 64.1676 35.9737C64.2894 40.0899 62.8525 44.0979 60.1501 47.1799C57.4718 50.1683 53.939 51.6624 49.5519 51.6624C45.2666 51.6624 41.8517 50.1845 39.3073 47.2287C36.7629 44.2728 35.4826 40.4832 35.4666 35.86C35.3853 33.0057 35.992 30.1743 37.2343 27.6096C38.3407 25.4176 39.9769 23.5434 41.991 22.1608C44.2729 20.6986 46.9403 19.9709 49.6403 20.0738ZM49.8733 25.9287C49.1269 25.8888 48.3834 26.0496 47.7185 26.3948C47.0537 26.7401 46.4914 27.2573 46.0888 27.8938C45.2371 29.2337 44.8193 31.8079 44.8193 35.7301C44.8193 39.3139 45.2237 41.8827 46.0326 43.4364C46.3701 44.1541 46.9086 44.756 47.5813 45.1673C48.254 45.5787 49.0314 45.7816 49.8171 45.7507C50.541 45.7584 51.2549 45.5798 51.8916 45.2318C52.5284 44.8837 53.0671 44.3777 53.4569 43.7612C54.3836 42.4295 54.847 39.8932 54.847 36.1523C54.847 32.1733 54.4372 29.4665 53.6176 28.0319C53.2534 27.36 52.7086 26.806 52.046 26.4338C51.3834 26.0617 50.6302 25.8865 49.8733 25.9287Z" fill="#015941"/>
<path d="M89.7511 28.0237L83.3231 29.7696C82.5678 27.0249 80.618 25.6526 77.4736 25.6526C74.5006 25.6526 73.0222 26.5702 73.0222 28.3892C73.0108 28.7212 73.0778 29.0512 73.2175 29.352C73.3572 29.6527 73.5657 29.9156 73.8257 30.1188C74.3614 30.5465 75.7809 30.9092 78.0843 31.207C80.6646 31.4946 83.2106 32.0386 85.6854 32.8311C87.2761 33.3889 88.6458 34.4513 89.5904 35.86C90.5875 37.4196 91.0894 39.2499 91.0287 41.1058C91.0657 42.5642 90.7671 44.0113 90.1564 45.3331C89.5456 46.6549 88.6395 47.8153 87.5093 48.7228C85.1631 50.688 81.8848 51.6678 77.6745 51.6624C70.0359 51.6624 65.4827 48.6849 64.0149 42.7299L71.4634 41.6174C72.0741 44.3242 74.289 45.6776 78.1084 45.6776C79.3927 45.7168 80.6671 45.438 81.8205 44.8656C82.2505 44.6932 82.6223 44.3994 82.8916 44.0193C83.1609 43.6391 83.3162 43.1887 83.3391 42.7218C83.3391 41.3197 82.2196 40.4887 79.9805 40.2288C73.9275 39.4763 69.9448 38.3043 68.0324 36.7126C67.0717 35.9047 66.3107 34.8813 65.8099 33.724C65.3092 32.5666 65.0825 31.3072 65.1479 30.0457C65.1245 28.678 65.4123 27.3231 65.9891 26.0855C66.5658 24.8479 67.4161 23.7608 68.4744 22.9078C70.6867 21.0239 73.7909 20.0819 77.787 20.0819C80.9528 20.0819 83.4918 20.7153 85.3881 21.974C87.452 23.4602 88.983 25.5831 89.7511 28.0237Z" fill="#015941"/>
<path d="M104.086 27.6664V40.4724C104.086 42.0965 104.327 43.1441 104.801 43.68C105.275 44.216 106.408 44.4921 108.135 44.4921C108.939 44.4921 109.879 44.4921 110.947 44.3702V51.0047C109.115 51.3604 107.259 51.5803 105.395 51.6624C101.715 51.6624 99.1038 50.9478 97.5611 49.5186C96.0184 48.0894 95.247 45.5044 95.247 41.7636V27.6664H90.4983V20.7072H95.7452L96.4603 11.7747L104.086 11.1738V20.7072H110.514V27.6664H104.086Z" fill="#015941"/>
<path d="M139.407 39.636C139.186 42.9744 137.677 46.0916 135.205 48.3168C132.746 50.5256 129.567 51.63 125.668 51.63C123.745 51.7014 121.829 51.3599 120.046 50.6278C118.264 49.8957 116.655 48.7897 115.327 47.3829C112.648 44.557 111.309 40.7675 111.309 36.0143C111.309 31.2611 112.67 27.4147 115.391 24.4751C118.107 21.5247 121.741 20.0494 126.294 20.0494C129.638 19.9321 132.896 21.125 135.39 23.3788C137.765 25.5145 139.209 28.512 139.407 31.7186L131.156 32.1977C130.882 28.5976 129.321 26.7976 126.471 26.7976C122.968 26.7976 121.216 29.6966 121.216 35.4946C121.216 39.3599 121.706 41.8042 122.687 42.803C123.14 43.3035 123.693 43.7013 124.309 43.97C124.925 44.2388 125.591 44.3724 126.262 44.3621C128.994 44.3621 130.625 42.6135 131.156 39.1163L139.407 39.636Z" fill="#015941"/>
<path d="M167.337 20.7072V51.0047H159.149V45.8401C157.596 49.7054 154.65 51.6354 150.311 51.63C148.487 51.7445 146.671 51.2971 145.104 50.3469C143.897 49.4955 142.988 48.2785 142.509 46.8714C141.899 44.805 141.628 42.6517 141.705 40.4968V20.7072H150.287V40.5049C150.287 43.2117 151.396 44.5651 153.613 44.5651C154.672 44.5878 155.707 44.244 156.546 43.5907C157.282 43.0791 157.843 42.3502 158.153 41.5037C158.43 40.2546 158.544 38.9742 158.491 37.6952V20.7072H167.337Z" fill="#015941"/>
<path d="M182.178 27.6664V40.4724C182.178 42.0965 182.411 43.1441 182.885 43.68C183.359 44.216 184.492 44.4921 186.227 44.4921C187.031 44.4921 187.971 44.4921 189.032 44.3702V51.0047C187.202 51.3608 185.349 51.5806 183.488 51.6624C179.807 51.6624 177.193 50.9478 175.645 49.5186C174.097 48.0894 173.326 45.5044 173.331 41.7636V27.6664H168.583V20.7072H173.837L174.553 11.7747L182.178 11.1738V20.7072H188.606V27.6664H182.178Z" fill="#015941"/>
<path d="M201.116 27.6664V40.4724C201.116 42.0965 201.349 43.1441 201.823 43.68C202.297 44.216 203.43 44.4921 205.166 44.4921C205.969 44.4921 206.91 44.4921 207.97 44.3702V51.0047C206.138 51.3613 204.282 51.5811 202.418 51.6624C198.738 51.6624 196.127 50.9478 194.584 49.5186C193.041 48.0894 192.27 45.5044 192.27 41.7636V27.6664H187.521V20.7072H192.776L193.491 11.7747L201.116 11.1738V20.7072H207.544V27.6664H201.116Z" fill="#015941"/>
<path d="M236.703 37.3542H217.419C217.419 37.8982 217.419 38.3611 217.419 38.7671C217.419 40.9272 217.99 42.5513 219.131 43.6394C219.67 44.1687 220.308 44.5847 221.007 44.8635C221.706 45.1423 222.453 45.2782 223.205 45.2635C226.151 45.2635 227.924 43.6746 228.524 40.4968L236.559 41.0896C234.325 48.0894 229.785 51.5893 222.939 51.5893C220.287 51.6731 217.66 51.0485 215.322 49.7785C213.171 48.5013 211.389 46.6756 210.156 44.4839C208.747 41.94 208.045 39.0585 208.123 36.1442C208.123 31.3207 209.483 27.4309 212.205 24.4751C214.874 21.7003 218.523 20.1088 222.352 20.0494C226.181 19.99 229.877 21.4677 232.63 24.1584C235.345 26.941 236.703 31.3396 236.703 37.3542ZM228.034 32.1652C227.76 28.0075 226.07 25.9287 222.964 25.9287C219.637 25.9287 217.776 28.0075 217.379 32.1652H228.034Z" fill="#015941"/>
<path d="M248.426 51.0047H239.853V20.7072H247.952V26.3428C249.195 22.1472 251.351 20.0494 254.421 20.0494C254.855 20.0494 255.393 20.0494 256.028 20.1388V28.9576C254.582 28.872 253.138 29.151 251.825 29.7696C250.705 30.4771 249.845 31.535 249.375 32.7823C248.669 34.6517 248.347 36.6463 248.426 38.6453V51.0047Z" fill="#015941"/>
<path d="M307.637 61.9998C301.834 62.0178 296.086 60.8723 290.725 58.6295C285.364 56.3867 280.496 53.0912 276.404 48.934L268.273 40.7079L274.524 34.3902L282.664 42.6162C289.292 49.3032 298.275 53.0588 307.641 53.0588C317.006 53.0588 325.989 49.3032 332.617 42.6162L340.749 34.3902L347 40.7079L338.861 48.934C334.769 53.0903 329.903 56.3852 324.544 58.6279C319.184 60.8707 313.437 62.0168 307.637 61.9998Z" fill="#015941"/>
<path d="M327.628 33.164L308.231 12.8628L288.835 33.164L282.479 26.96L308.231 0L333.991 26.96L327.628 33.164Z" fill="#015941"/>
</svg>
